<mxfile host="app.diagrams.net" agent="Mozilla/5.0 (Macintosh; Intel Mac OS X 10_15_7) AppleWebKit/537.36 (KHTML, like Gecko) Chrome/126.0.0.0 Safari/537.36" version="24.8.4">
  <diagram name="Page-1" id="Rb8yjCPoi1Jb1c2iFkYs">
    <mxGraphModel dx="1853" dy="1854" grid="1" gridSize="10" guides="1" tooltips="1" connect="1" arrows="1" fold="1" page="1" pageScale="1" pageWidth="827" pageHeight="1169" math="0" shadow="0">
      <root>
        <mxCell id="0" />
        <mxCell id="1" parent="0" />
        <mxCell id="aYPkvHp1ythVZZEVIGe8-1" value="&lt;b&gt;&lt;font style=&quot;font-size: 15px;&quot;&gt;User Query&lt;/font&gt;&lt;/b&gt;" style="rounded=1;whiteSpace=wrap;html=1;fillColor=#dae8fc;strokeColor=#6c8ebf;shadow=1;glass=0;strokeWidth=0;" vertex="1" parent="1">
          <mxGeometry x="-50" width="240" height="120" as="geometry" />
        </mxCell>
        <mxCell id="aYPkvHp1ythVZZEVIGe8-3" value="&lt;b style=&quot;font-size: 15px;&quot;&gt;&lt;font style=&quot;font-size: 15px;&quot;&gt;Query Analysis Agent&lt;/font&gt;&lt;/b&gt;&lt;div style=&quot;font-size: 15px;&quot;&gt;&lt;font style=&quot;font-size: 15px;&quot;&gt;(Task Decomposition)&lt;/font&gt;&lt;/div&gt;" style="rounded=1;whiteSpace=wrap;html=1;fillColor=#b0e3e6;strokeColor=#0e8088;shadow=1;strokeWidth=0;" vertex="1" parent="1">
          <mxGeometry x="270" width="240" height="120" as="geometry" />
        </mxCell>
        <mxCell id="aYPkvHp1ythVZZEVIGe8-4" value="&lt;b style=&quot;font-size: 15px;&quot;&gt;&lt;font style=&quot;font-size: 15px;&quot;&gt;Retrieval Agent&lt;/font&gt;&lt;/b&gt;&lt;div style=&quot;font-size: 15px;&quot;&gt;&lt;font style=&quot;font-size: 15px;&quot;&gt;(Document Search)&lt;/font&gt;&lt;/div&gt;" style="rounded=1;whiteSpace=wrap;html=1;fillColor=#d5e8d4;strokeColor=#82b366;shadow=1;glass=0;strokeWidth=0;" vertex="1" parent="1">
          <mxGeometry x="-50" y="190" width="240" height="120" as="geometry" />
        </mxCell>
        <mxCell id="aYPkvHp1ythVZZEVIGe8-19" value="" style="edgeStyle=orthogonalEdgeStyle;rounded=0;orthogonalLoop=1;jettySize=auto;html=1;strokeWidth=3;" edge="1" parent="1">
          <mxGeometry relative="1" as="geometry">
            <mxPoint x="514" y="249.29000000000002" as="sourcePoint" />
            <mxPoint x="584" y="249.29000000000002" as="targetPoint" />
            <Array as="points">
              <mxPoint x="514" y="249.29000000000002" />
            </Array>
          </mxGeometry>
        </mxCell>
        <mxCell id="aYPkvHp1ythVZZEVIGe8-5" value="&lt;b style=&quot;font-size: 15px;&quot;&gt;&lt;font style=&quot;font-size: 15px;&quot;&gt;Reasoning Agent&lt;/font&gt;&lt;/b&gt;&lt;div style=&quot;font-size: 15px;&quot;&gt;&lt;font style=&quot;font-size: 15px;&quot;&gt;(Multi-step analysis)&lt;/font&gt;&lt;/div&gt;" style="rounded=1;whiteSpace=wrap;html=1;fillColor=#e1d5e7;strokeColor=#9673a6;shadow=1;glass=0;strokeWidth=0;" vertex="1" parent="1">
          <mxGeometry x="270" y="190" width="240" height="120" as="geometry" />
        </mxCell>
        <mxCell id="aYPkvHp1ythVZZEVIGe8-6" value="&lt;font style=&quot;font-size: 15px;&quot;&gt;&lt;b&gt;Response Generation&lt;/b&gt;&lt;br&gt;(Answer synthesis)&lt;/font&gt;" style="rounded=1;whiteSpace=wrap;html=1;fillColor=#f8cecc;strokeColor=#b85450;shadow=1;glass=0;strokeWidth=0;" vertex="1" parent="1">
          <mxGeometry x="584" y="180" width="240" height="120" as="geometry" />
        </mxCell>
        <mxCell id="aYPkvHp1ythVZZEVIGe8-7" value="&lt;b&gt;&lt;font style=&quot;font-size: 15px;&quot;&gt;Knowledge Base&lt;/font&gt;&lt;/b&gt;" style="rounded=1;whiteSpace=wrap;html=1;fillColor=#fff2cc;strokeColor=#d6b656;shadow=1;glass=0;strokeWidth=0;" vertex="1" parent="1">
          <mxGeometry x="-50" y="380" width="240" height="120" as="geometry" />
        </mxCell>
        <mxCell id="aYPkvHp1ythVZZEVIGe8-8" value="&lt;b&gt;&lt;font style=&quot;font-size: 15px;&quot;&gt;Final Response&lt;/font&gt;&lt;/b&gt;" style="rounded=1;whiteSpace=wrap;html=1;fillColor=#dae8fc;strokeColor=#6c8ebf;shadow=1;glass=0;strokeWidth=0;" vertex="1" parent="1">
          <mxGeometry x="584" y="370" width="240" height="120" as="geometry" />
        </mxCell>
        <mxCell id="aYPkvHp1ythVZZEVIGe8-12" value="" style="endArrow=classic;html=1;rounded=0;strokeWidth=3;" edge="1" parent="1">
          <mxGeometry width="50" height="50" relative="1" as="geometry">
            <mxPoint x="703.29" y="300" as="sourcePoint" />
            <mxPoint x="703.29" y="370" as="targetPoint" />
          </mxGeometry>
        </mxCell>
        <mxCell id="aYPkvHp1ythVZZEVIGe8-14" value="" style="endArrow=classic;startArrow=classic;html=1;rounded=0;strokeWidth=3;" edge="1" parent="1">
          <mxGeometry width="50" height="50" relative="1" as="geometry">
            <mxPoint x="190" y="249.29" as="sourcePoint" />
            <mxPoint x="270" y="249.29" as="targetPoint" />
          </mxGeometry>
        </mxCell>
        <mxCell id="aYPkvHp1ythVZZEVIGe8-15" value="" style="endArrow=classic;html=1;rounded=0;strokeWidth=3;" edge="1" parent="1">
          <mxGeometry width="50" height="50" relative="1" as="geometry">
            <mxPoint x="60" y="310" as="sourcePoint" />
            <mxPoint x="60" y="380" as="targetPoint" />
          </mxGeometry>
        </mxCell>
        <mxCell id="aYPkvHp1ythVZZEVIGe8-18" value="" style="shape=partialRectangle;whiteSpace=wrap;html=1;bottom=0;right=0;fillColor=none;rotation=-180;strokeWidth=3;" vertex="1" parent="1">
          <mxGeometry x="190" y="250" width="40" height="190" as="geometry" />
        </mxCell>
        <mxCell id="aYPkvHp1ythVZZEVIGe8-20" value="" style="edgeStyle=orthogonalEdgeStyle;rounded=0;orthogonalLoop=1;jettySize=auto;html=1;strokeWidth=3;" edge="1" parent="1">
          <mxGeometry relative="1" as="geometry">
            <mxPoint x="190" y="60" as="sourcePoint" />
            <mxPoint x="270" y="60" as="targetPoint" />
          </mxGeometry>
        </mxCell>
        <mxCell id="aYPkvHp1ythVZZEVIGe8-21" value="&lt;b&gt;&lt;font style=&quot;font-size: 21px;&quot;&gt;&lt;u&gt;Agentic Retrieval Augmented Generation(RAG) Workflow&lt;/u&gt;&lt;/font&gt;&lt;/b&gt;" style="shape=ext;double=1;rounded=1;whiteSpace=wrap;html=1;strokeWidth=0;opacity=0;" vertex="1" parent="1">
          <mxGeometry x="-50" y="-90" width="880" height="50" as="geometry" />
        </mxCell>
        <mxCell id="aYPkvHp1ythVZZEVIGe8-30" value="" style="endArrow=classic;startArrow=classic;html=1;rounded=0;strokeWidth=3;" edge="1" parent="1">
          <mxGeometry width="50" height="50" relative="1" as="geometry">
            <mxPoint x="60" y="184" as="sourcePoint" />
            <mxPoint x="370" y="124" as="targetPoint" />
            <Array as="points">
              <mxPoint x="60" y="154" />
              <mxPoint x="370" y="154" />
            </Array>
          </mxGeometry>
        </mxCell>
      </root>
    </mxGraphModel>
  </diagram>
</mxfile>
